<svg xmlns="http://www.w3.org/2000/svg" viewBox="0 0 326.6 60"><path d="M16.106 5.702v53.362H11.66V5.702H-.064V1.255h27.49v4.852c.404-.405-11.32-.405-11.32-.405zM60.574 48.15l4.043 2.426c-1.617 2.83-3.638 5.255-6.468 6.872s-6.064 2.83-9.702 2.83c-4.851 0-9.298-1.617-12.936-5.256s-5.256-8.085-5.256-12.936c0-5.255 1.617-9.298 5.256-12.936 3.638-3.638 8.085-5.255 12.936-5.255 3.234 0 6.064.808 8.893 2.425 2.83 1.617 4.851 3.639 6.468 6.064L40.362 52.596c2.425 1.617 5.255 2.83 8.085 2.83 2.425 0 4.85-.809 7.276-2.022 2.022-1.212 3.639-3.234 4.851-5.255zm-23.446 1.213L57.34 31.17c-2.425-2.021-5.66-3.234-8.893-3.234-4.043 0-7.277 1.213-9.702 4.043-2.83 2.83-4.043 6.064-4.043 9.702 0 2.83.809 5.255 2.426 7.68zm62.659-19.404l-3.638 2.83c-2.83-3.235-6.468-4.852-10.51-4.852-4.043 0-7.277 1.213-9.703 4.043s-4.043 6.064-4.043 9.702 1.213 7.277 4.043 9.702c2.83 2.83 6.064 4.043 9.702 4.043 4.043 0 7.681-1.617 10.106-4.447l3.639 2.83c-1.617 2.02-3.639 3.638-6.064 4.85-2.426 1.213-4.851 1.618-7.68 1.618-4.852 0-9.299-1.617-12.937-5.256-3.638-3.638-5.255-8.085-5.255-12.936 0-5.255 1.617-9.298 5.255-12.936s8.085-5.255 12.936-5.255c2.83 0 5.66.404 8.085 1.617 2.426.404 4.447 2.021 6.064 4.447zm27.085 7.276c0-2.83-.808-4.85-2.83-6.468-1.617-1.617-4.042-2.425-6.468-2.425s-4.85.808-6.468 2.83c-1.617 1.616-2.83 4.042-2.83 6.467v21.83h-4.446V1.255h4.85v25.469c2.426-2.426 5.66-3.639 9.299-3.639 4.042 0 7.276 1.213 9.702 4.043 2.83 2.83 4.042 6.064 4.042 9.702v21.83h-4.85V37.234zM158 23.49L179.425.043v59.02h-4.85V12.17L158 30.362 141.425 12.17v46.894h-4.85V.043L158 23.489zm57 30.724c-3.639 3.638-8.085 5.66-13.34 5.66-4.852 0-9.299-1.618-12.937-5.256s-5.255-8.085-5.255-12.936c0-5.255 1.617-9.298 5.255-12.936 3.638-3.639 8.085-5.256 12.936-5.256 5.256 0 9.702 2.022 13.34 5.66l4.852-4.851v34.766L215 54.213zm-13.34-26.277c-4.043 0-7.277 1.213-9.703 4.043-2.83 2.83-4.042 6.064-4.042 9.702 0 4.042 1.212 7.277 4.042 9.702 2.83 2.83 6.064 4.043 9.702 4.043 3.639 0 6.873-1.213 9.702-4.043 2.83-2.83 4.043-6.064 4.043-9.702s-1.213-6.872-4.043-9.702-6.063-4.043-9.702-4.043zm41.637-4.042l-2.02 4.447c-.81-.405-1.618-.405-2.426-.405-2.426 0-4.851.809-6.468 2.83-1.617 1.617-2.426 4.043-2.426 6.468v22.234h-4.851v-35.17l4.043 3.234c2.425-2.83 5.66-4.043 9.702-4.043 1.617-.404 2.83 0 4.446.405zm26.277 35.17h-5.66L251.787 41.68v17.383h-4.851V1.255h4.85v39.213l10.107-16.17h5.66l-10.107 16.574 12.128 18.192zm33.149-10.915l4.042 2.426c-1.617 2.83-3.638 5.255-6.468 6.872s-6.063 2.83-9.702 2.83c-4.85 0-9.298-1.617-12.936-5.256s-5.255-8.085-5.255-12.936c0-5.255 1.617-9.298 5.255-12.936s8.085-5.255 12.936-5.255c3.234 0 6.064.808 8.894 2.425 2.83 1.617 4.85 3.639 6.468 6.064l-23.851 20.213c2.425 1.617 5.255 2.83 8.085 2.83 2.426 0 4.851-.809 7.277-2.022 2.425-1.212 4.042-3.234 5.255-5.255zm-23.447 1.213L299.49 31.17c-2.426-2.021-5.66-3.234-8.894-3.234-4.042 0-7.276 1.213-9.702 4.043-2.83 2.83-4.042 6.064-4.042 9.702 0 2.83.808 5.255 2.425 7.68zm36.383-20.617h-6.468v-4.447h6.468V14.192l4.851-2.022v12.128h6.064v4.851h-6.064v30.32h-4.85V28.744z"/></svg>