<svg xmlns="http://www.w3.org/2000/svg" viewBox="0 0 512 512"><path d="M418.783 334.787c15.559-11.689 26.828-27.669 32.601-46.23L512 109.102H122.337l-4.299-47.67a66.998 66.998 0 0 0-21.543-43.627A67.002 67.002 0 0 0 51.143.178H0V40.15h51.143c14.189 0 25.83 10.659 27.08 24.834l31.281 346.847.017.185c3.049 30.622 26.04 54.542 55.415 59.526 7.833 23.379 29.927 40.279 55.909 40.279 25.497 0 47.26-16.272 55.465-38.973h46.959c8.205 22.701 29.968 38.973 55.465 38.973 32.51 0 58.959-26.45 58.959-58.959s-26.449-58.959-58.959-58.959c-25.497 0-47.26 16.272-55.465 38.973H276.31c-8.205-22.701-29.968-38.973-55.465-38.973-24.644 0-45.792 15.203-54.59 36.718-9.159-3.636-15.886-12.105-16.95-22.484l-4.979-55.206h220.418c19.55.001 38.236-6.273 54.039-18.144zm-40.047 99.089c10.47 0 18.987 8.517 18.987 18.987s-8.517 18.987-18.987 18.987c-10.47 0-18.987-8.517-18.987-18.987s8.517-18.987 18.987-18.987zm-157.89 0c10.47 0 18.987 8.517 18.987 18.987s-8.517 18.987-18.987 18.987-18.987-8.517-18.987-18.987 8.517-18.987 18.987-18.987zm-80.124-120.915v-.001l-14.781-163.886h330.366l-42.875 126.932-.167.519c-6.6 21.453-26.552 36.436-48.519 36.436H140.722z"/></svg>